HIERARCHY
ROOT Hips
{
	OFFSET 0.000000 0.000000 0.000000
	CHANNELS 6 Xposition Yposition Zposition Xrotation Yrotation Zrotation
	JOINT LeftUpLeg_virtual
	{
		OFFSET 0.000000 0.000000 0.000000
		CHANNELS 3 Xrotation Yrotation Zrotation
		JOINT LeftUpLeg
		{
			OFFSET 13.026900 -6.336304 -1.092800
			CHANNELS 3 Xrotation Yrotation Zrotation
			JOINT LeftLeg
			{
				OFFSET 0.524474 -46.096886 9.782700
				CHANNELS 3 Xrotation Yrotation Zrotation
				JOINT LeftFoot
				{
					OFFSET -0.524474 -53.427422 -12.948200
					CHANNELS 3 Xrotation Yrotation Zrotation
					JOINT LeftToeBase
					{
						OFFSET 0.192200 -14.009700 16.364100
						CHANNELS 3 Xrotation Yrotation Zrotation
						JOINT LeftToe_End
						{
							OFFSET -1.784700 -0.561700 9.474800
							CHANNELS 3 Xrotation Yrotation Zrotation
							End Site
							{
								OFFSET 0 0 0
							}
						}
					}
				}
			}
		}
	}
	JOINT RightUpLeg_virtual
	{
		OFFSET 0.000000 0.000000 0.000000
		CHANNELS 3 Xrotation Yrotation Zrotation
		JOINT RightUpLeg
		{
			OFFSET -12.883000 -6.336304 -1.092800
			CHANNELS 3 Xrotation Yrotation Zrotation
			JOINT RightLeg
			{
				OFFSET -0.524587 -46.096825 9.782800
				CHANNELS 3 Xrotation Yrotation Zrotation
				JOINT RightFoot
				{
					OFFSET 0.524587 -53.427383 -12.948300
					CHANNELS 3 Xrotation Yrotation Zrotation
					JOINT RightToeBase
					{
						OFFSET -0.192200 -14.009700 16.364100
						CHANNELS 3 Xrotation Yrotation Zrotation
						JOINT RightToe_End
						{
							OFFSET 1.784700 -0.561700 9.474800
							CHANNELS 3 Xrotation Yrotation Zrotation
							End Site
							{
								OFFSET 0 0 0
							}
						}
					}
				}
			}
		}
	}
	JOINT Spine_virtual
	{
		OFFSET 0.000000 0.000000 0.000000
		CHANNELS 3 Xrotation Yrotation Zrotation
		JOINT Spine
		{
			OFFSET 0.072000 7.257294 -0.789700
			CHANNELS 3 Xrotation Yrotation Zrotation
			JOINT Spine1
			{
				OFFSET 0.000000 12.508769 -0.658067
				CHANNELS 3 Xrotation Yrotation Zrotation
				JOINT Spine1_split
				{
					OFFSET 0.000000 12.508769 -0.658067
					CHANNELS 3 Xrotation Yrotation Zrotation
					JOINT Spine2
					{
						OFFSET 0.000000 12.508769 -0.658067
						CHANNELS 3 Xrotation Yrotation Zrotation
						JOINT Neck_virtual
						{
							OFFSET 0.000000 0.000000 0.000000
							CHANNELS 3 Xrotation Yrotation Zrotation
							JOINT Neck
							{
								OFFSET 0.000000 14.033295 7.520400
								CHANNELS 3 Xrotation Yrotation Zrotation
								JOINT Head
								{
									OFFSET 0.000000 8.198502 5.703100
									CHANNELS 3 Xrotation Yrotation Zrotation
									JOINT HeadTop_End
									{
										OFFSET 0.000000 17.760803 13.332701
										CHANNELS 3 Xrotation Yrotation Zrotation
										End Site
										{
											OFFSET 0 0 0
										}
									}
								}
							}
						}
						JOINT LeftShoulder_virtual
						{
							OFFSET 0.000000 0.000000 0.000000
							CHANNELS 3 Xrotation Yrotation Zrotation
							JOINT LeftShoulder
							{
								OFFSET 6.292450 5.785301 -0.669000
								CHANNELS 3 Xrotation Yrotation Zrotation
								JOINT LeftShoulder_split
								{
									OFFSET 6.292450 5.785301 -0.669000
									CHANNELS 3 Xrotation Yrotation Zrotation
									JOINT LeftArm
									{
										OFFSET 13.907140 -6.093903 1.965100
										CHANNELS 3 Xrotation Yrotation Zrotation
										JOINT LeftForeArm
										{
											OFFSET 34.140198 0.000000 0.000000
											CHANNELS 3 Xrotation Yrotation Zrotation
											JOINT LeftHand
											{
												OFFSET 40.960209 0.000000 0.000000
												CHANNELS 3 Xrotation Yrotation Zrotation
												End Site
												{
													OFFSET 0 0 0
												}
											}
										}
									}
								}
							}
						}
						JOINT RightShoulder_virtual
						{
							OFFSET 0.000000 0.000000 0.000000
							CHANNELS 3 Xrotation Yrotation Zrotation
							JOINT RightShoulder
							{
								OFFSET -6.292450 5.785301 -0.669000
								CHANNELS 3 Xrotation Yrotation Zrotation
								JOINT RightShoulder_split
								{
									OFFSET -6.292450 5.785301 -0.669000
									CHANNELS 3 Xrotation Yrotation Zrotation
									JOINT RightArm
									{
										OFFSET -13.907140 -6.093903 1.965100
										CHANNELS 3 Xrotation Yrotation Zrotation
										JOINT RightForeArm
										{
											OFFSET -34.140198 0.000000 0.000000
											CHANNELS 3 Xrotation Yrotation Zrotation
											JOINT RightHand
											{
												OFFSET -40.960209 0.000000 0.000000
												CHANNELS 3 Xrotation Yrotation Zrotation
												End Site
												{
													OFFSET 0 0 0
												}
											}
										}
									}
								}
							}
						}
					}
				}
			}
		}
	}
}
MOTION
Frames: 5
Frame Time: 0.03333333
-9.717973 93.043968 8.930767 0.000000 0.000000 0.000000 15.076777 -45.129246 18.074760 -57.317609 29.534541 28.962789 39.152270 -23.018243 4.735769 2.239574 -2.021361 -8.767386 -5.324767 -4.295778 -0.211231 0.000000 0.000000 0.000000 12.752951 -41.143550 17.441286 -16.552619 -7.386825 -30.910455 40.745412 3.996999 -3.824915 -35.805112 -8.322173 25.416433 3.933407 2.726143 1.661411 0.000000 0.000000 0.000000 13.834003 -41.905171 17.681794 13.175358 -5.907833 -0.279436 26.274315 -1.944738 -1.495975 -0.128789 -2.817454 1.679498 0.000000 0.000000 0.000000 13.058393 -1.823391 -2.130811 1.903410 3.286296 12.941642 15.182590 0.807206 -6.258561 0.000000 0.000000 0.000000 15.304043 -2.663336 -2.998568 3.477613 -28.601776 2.075993 -0.876652 -4.034279 0.008596 -32.651282 -13.846989 -32.228254 -5.513921 -15.682055 1.225673 0.000000 0.000000 0.000000 14.171336 -1.256355 -1.974030 2.392745 14.390003 18.650617 9.794894 1.529358 2.953908 -10.919193 -9.578625 13.503335 -76.173425 83.180735 73.678576 0.000000 0.000000 0.000000 
-8.700208 93.253525 8.755547 0.000000 0.000000 0.000000 10.975599 -43.753239 14.368254 -57.727044 29.070443 28.688167 40.596698 -23.593394 5.112525 3.964727 -3.590843 -7.912340 -5.089956 -4.136497 -0.381259 0.000000 0.000000 0.000000 8.691696 -39.782785 13.886043 -12.812707 -8.009033 -30.207000 39.392273 3.766084 -3.803442 -34.598590 -8.997956 26.087006 3.825110 2.551406 1.810319 0.000000 0.000000 0.000000 10.089633 -41.951985 14.752959 13.039572 -5.560558 0.027392 24.898097 -1.077301 -1.616361 0.347506 -2.873429 2.077387 0.000000 0.000000 0.000000 12.266276 -0.847651 -2.297024 1.053671 4.190975 11.297100 13.879744 1.838659 -8.156413 0.000000 0.000000 0.000000 14.321231 -1.806090 -3.088850 3.328438 -29.018103 2.133957 -0.347603 -3.285554 -0.388384 -30.898884 -10.174567 -30.328810 -6.567866 -16.911195 0.239395 0.000000 0.000000 0.000000 13.288106 -0.455727 -2.135938 2.044672 14.209420 19.490853 9.187918 1.384903 3.711559 -10.714878 -12.163523 11.181812 -81.984939 86.205375 79.789764 0.000000 0.000000 0.000000 
-7.852506 93.280052 8.414936 0.000000 0.000000 0.000000 7.121702 -42.346254 10.973689 -58.588263 28.735388 28.966651 41.973783 -23.851447 5.326818 5.791561 -4.917957 -6.975825 -4.545968 -3.989346 -0.630525 0.000000 0.000000 0.000000 5.035081 -38.553713 10.724060 -9.835542 -8.694695 -29.441110 38.714400 3.578941 -3.820738 -33.391968 -9.496429 26.778583 3.416733 2.400553 1.961165 0.000000 0.000000 0.000000 6.420677 -41.629644 11.878005 12.730306 -5.074359 0.639557 23.629618 -0.305257 -1.663232 0.887142 -3.036727 2.247182 0.000000 0.000000 0.000000 11.467088 0.054362 -2.302556 -0.956028 5.091799 8.940181 12.264437 3.128533 -9.962986 0.000000 0.000000 0.000000 13.400409 -0.964399 -3.001792 3.101609 -29.245880 2.133950 0.495463 -2.523685 -0.721792 -30.171264 -6.773179 -29.136317 -7.829296 -18.816673 -1.045005 0.000000 0.000000 0.000000 12.384644 0.262841 -2.146482 1.761741 13.645061 19.840118 8.650602 1.600866 4.177799 -10.253540 -15.043285 10.418170 -86.921909 88.592219 85.230037 0.000000 0.000000 0.000000 
-7.238830 93.136604 8.105049 0.000000 0.000000 0.000000 3.730434 -41.527622 8.013323 -59.687500 28.469707 29.750839 43.218784 -23.798940 5.449116 7.459439 -5.936143 -6.167595 -3.967230 -3.880109 -0.895708 0.000000 0.000000 0.000000 2.121150 -37.825577 8.074212 -7.861504 -9.237363 -28.638749 38.533865 3.585459 -3.891457 -32.126748 -9.648942 27.567075 2.603773 2.301978 2.029741 0.000000 0.000000 0.000000 3.371585 -41.172141 9.246354 12.455361 -4.543506 1.431794 22.327262 0.299567 -1.686108 1.374126 -2.987613 2.124254 0.000000 0.000000 0.000000 10.504012 0.808590 -2.226623 -3.791304 5.930247 6.788989 10.541565 4.658600 -11.464595 0.000000 0.000000 0.000000 12.367778 -0.193363 -2.804682 2.876103 -29.378624 2.112696 1.675084 -2.017383 -0.722222 -29.936613 -4.080980 -28.721994 -9.168199 -21.459964 -2.526247 0.000000 0.000000 0.000000 11.318474 0.859457 -2.050556 1.582060 12.760877 19.459286 8.196515 2.183989 4.138027 -9.675836 -17.312991 11.592534 9.170224 89.385470 -10.268996 0.000000 0.000000 0.000000 
-6.793206 92.959625 7.752029 0.000000 0.000000 0.000000 1.082370 -41.713533 5.582776 -60.759969 28.108067 30.797781 44.484875 -23.440494 5.618018 8.605471 -6.542302 -5.537371 -3.404520 -3.838714 -1.077515 0.000000 0.000000 0.000000 -0.040472 -37.994730 5.897853 -7.036042 -9.509494 -27.849731 38.625334 3.819762 -4.002262 -30.715794 -9.395225 28.474755 1.502601 2.281741 2.008018 0.000000 0.000000 0.000000 1.285386 -40.929137 7.042910 12.385206 -3.933267 2.286152 20.882595 0.788591 -1.770168 1.803838 -2.790772 1.517937 0.000000 0.000000 0.000000 9.242552 1.449681 -2.194489 -6.801749 6.673170 5.413683 9.003176 6.330679 -12.528339 0.000000 0.000000 0.000000 11.109770 0.511206 -2.656325 2.682395 -29.360927 2.304294 2.763641 -1.590339 -0.872218 -29.393077 -2.236990 -28.989437 -10.500233 -24.638992 -4.097281 0.000000 0.000000 0.000000 9.974118 1.405838 -1.986625 1.442556 11.480949 18.147169 7.629783 2.919907 3.729353 -8.890683 -18.338812 14.296346 15.241350 87.657910 -15.821691 0.000000 0.000000 0.000000 
